<svg width="597" height="263" viewBox="0 0 597 263" fill="none" xmlns="http://www.w3.org/2000/svg">
<path d="M198.043 192.664H165.211V235H119.707V192.664H11.1311V161.272L106.171 33.4H155.131L67.0031 154.648H121.147V116.92H165.211V154.648H198.043V192.664ZM298.398 238.456C281.694 238.456 266.814 234.328 253.758 226.072C240.702 217.816 230.43 205.912 222.942 190.36C215.646 174.616 211.998 155.896 211.998 134.2C211.998 112.504 215.646 93.88 222.942 78.328C230.43 62.584 240.702 50.584 253.758 42.328C266.814 34.072 281.694 29.944 298.398 29.944C315.102 29.944 329.982 34.072 343.038 42.328C356.094 50.584 366.27 62.584 373.566 78.328C381.054 93.88 384.798 112.504 384.798 134.2C384.798 155.896 381.054 174.616 373.566 190.36C366.27 205.912 356.094 217.816 343.038 226.072C329.982 234.328 315.102 238.456 298.398 238.456ZM298.398 199C310.686 199 320.286 193.72 327.198 183.16C334.302 172.6 337.854 156.28 337.854 134.2C337.854 112.12 334.302 95.8 327.198 85.24C320.286 74.68 310.686 69.4 298.398 69.4C286.302 69.4 276.702 74.68 269.598 85.24C262.686 95.8 259.23 112.12 259.23 134.2C259.23 156.28 262.686 172.6 269.598 183.16C276.702 193.72 286.302 199 298.398 199ZM592.074 192.664H559.242V235H513.738V192.664H405.162V161.272L500.202 33.4H549.162L461.034 154.648H515.178V116.92H559.242V154.648H592.074V192.664Z" fill="#FF6060"/>
</svg>
